<?xml version="1.0" encoding="UTF-8"?>
<svg id="Layer_1" data-name="Layer 1" xmlns="http://www.w3.org/2000/svg" viewBox="0 0 1435.56 222.91">
  <path d="m174.43,196.38c0,7.75-2.13,16.09-5.79,21.16l-60.07,2.98,1.83-20.56h-1.83c-16.16,13.71-28.67,20.56-47.27,20.56-27.45,0-44.22-13.71-44.22-42.62v-73.31l-5.18-2.09c-7.62-2.98-9.76-4.77-11.89-8.05v-16.09l67.7-9.83v109.37c4.57,3.58,11.28,5.07,17.69,5.07s13.72-1.79,19.82-4.47v-80.16l-17.69-3.28v-1.49c0-7.75,2.13-16.09,5.18-21.16h67.7l-4.57,27.71v91.49l18.6,3.28v1.49Z" fill="#8cc542"/>
  <path d="m343.98,196.38c0,7.75-2.13,16.09-5.49,21.16l-59.16,2.98,2.13-19.67h-1.83c-12.2,14.6-23.18,19.67-39.03,19.67-34.15,0-60.38-25.63-60.38-71.22,0-49.17,34.76-79.87,77.76-79.87,3.66,0,12.5.3,17.08,1.19v-34.57l-5.18-2.09c-7.32-2.98-10.06-4.77-11.59-7.75V9.83L325.68,0v191.62l18.3,3.28v1.49Zm-85.38-11.03c5.79,0,11.59-1.79,16.47-4.47v-78.37c-6.1-1.19-15.25-2.09-21.35-2.09s-19.82,14.9-19.82,46.19c0,27.71,9.15,38.74,24.7,38.74Z" fill="#652f8c"/>
  <path d="m471.13,217.54h-124.72v-16.99l68.61-86.72h-39.03l-3.66,18.77h-3.66c-7.01,0-14.94-1.49-19.21-4.17v-56.02h122.28v16.99l-72.58,86.72h45.44l3.66-18.77h3.35c7.32,0,14.94,1.49,19.52,4.17v56.02Z" fill="#e92629"/>
  <path d="m556.21,220.52c-26.23,0-48.18-5.96-62.51-13.71V36.06l-5.49-2.09c-7.01-2.68-9.76-4.77-11.59-7.75V9.83L544.01,0v83.74h1.83c10.06-10.73,21.04-14.3,34.46-14.3,33.24,0,58.85,23.54,58.85,69.44,0,49.47-35.07,81.65-82.95,81.65Zm4.27-115.92c-5.79,0-11.59,1.79-16.47,4.47v78.08c5.79,1.49,15.25,2.38,21.35,2.38,6.71,0,19.82-16.09,19.82-46.19,0-27.71-9.15-38.74-24.7-38.74Z" fill="#04a54f"/>
  <path d="m783.39,147.51h-82.03c0,21.75,13.42,36.95,42.08,36.95,15.25,0,27.75-3.87,36.59-10.73l2.44,19.37c-10.37,16.99-28.36,27.42-58.85,27.42-43,0-75.02-29.21-75.02-73.61s32.93-77.48,73.8-77.48c37.51,0,62.82,19.67,62.82,58.11,0,4.77-.91,14.3-1.83,19.97Zm-42.39-28.01c0-16.99-8.84-24.73-22.26-24.73-2.13,0-5.18.3-6.71.89-3.35.89-9.76,12.22-10.67,33.38l39.64-2.68v-6.85Z" fill="#9e2064"/>
  <path d="m969.4,196.38c0,7.75-2.13,16.09-5.49,21.16h-76.24l2.13-22.65,11.59-3.28v-79.57c-5.18-3.58-11.28-5.07-17.69-5.07-7.01,0-14.64,1.79-20.74,4.47v80.16l13.11,3.28v1.49c0,7.75-2.13,16.09-5.79,21.16h-77.76l3.05-22.65,17.08-3.28v-87.02l-5.49-2.09c-7.32-2.68-9.45-4.77-11.59-8.05v-16.09l62.21-9.83,3.35,19.37h1.83c17.38-14.6,29.27-18.48,44.83-18.48,28.36,0,44.22,14.3,44.22,42.62v79.57l17.38,3.28v1.49Z" fill="#f15b2a"/>
  <path d="m1061.79,196.38c0,7.75-2.13,16.09-5.49,21.16h-84.47l3.05-22.65,17.08-3.28v-87.02l-5.49-2.09c-7.32-2.68-9.45-4.77-11.59-8.05v-16.09l67.39-9.83v123.08l19.52,3.28v1.49Zm-45.13-145.43c-17.69,0-27.75-10.43-27.75-24.14,0-15.2,10.98-24.44,27.75-24.44s27.14,9.24,27.14,24.44c0,13.71-9.45,24.14-27.14,24.14Z" fill="#02a69c"/>
  <path d="m1224.93,95.36l-14.64,3.28-27.45,30.99,40.25,80.46c-7.62,6.85-21.96,11.92-32.32,12.81l-46.35-53.64-12.5,12.52v35.76h-70.75l3.05-22.65,17.08-3.28V36.36l-5.18-2.09c-7.62-2.98-9.76-4.47-11.89-8.05V9.83l67.7-9.83v146.32h1.83l36.9-47.68-18.91-3.28v-1.49c0-8.05,2.13-16.39,5.49-21.46h70.44l-2.75,22.95Z" fill="#e92629"/>
  <path d="m1258.78,220.52c-18.3,0-27.45-11.62-27.45-28.01,0-17.88,10.06-28.61,27.45-28.61,16.47,0,27.14,10.73,27.14,28.61,0,16.39-10.06,28.01-27.14,28.01Z" fill="#f69322"/>
  <path d="m1378.46,210.91c0,2.31-.79,5.09-2.05,6.63h-36.75l1.58-7.25,11.04-1.7v-50.25c-3.79-3.7-9.62-5.55-14.98-5.55-6.31,0-12.93,2-18.45,5.24v50.56l11.99,1.7v.62c0,2.31-.79,5.09-2.05,6.63h-37.54l1.58-7.25,11.99-1.7v-89.25l-3-1.23c-4.89-2-5.84-2.77-6.78-4.32v-3.7l23.82-5.09v46.09h.63c8.67-7.71,15.3-10.17,23.97-10.17,14.04,0,22.87,6.78,22.87,19.58v48.09l12.15,1.7v.62Z" fill="#231f20"/>
  <path d="m1411.11,157.74v50.87l15.14,1.7v.62c0,2.31-.79,5.09-2.05,6.63h-40.69l1.58-7.25,11.99-1.7v-53.33l-3-1.23c-4.89-2-5.84-2.77-6.78-4.32v-3.7l21.77-5.09,1.42,11.41h.63c10.25-9.25,14.04-11.41,18.45-11.41,1.58,0,3.47.31,4.89,1.08l1.1,12.02c-4.57,1.7-8.68,2.31-24.45,3.7Z" fill="#231f20"/>
</svg>