<?xml version="1.0" encoding="UTF-8"?>
<svg id="Layer_1" data-name="Layer 1" xmlns="http://www.w3.org/2000/svg" viewBox="0 0 100 150">
  <rect width="100" height="150" fill="#fff"/>
  <rect x="2.94" y="3.32" width="94.13" height="143.35" fill="none" stroke="#231f20" stroke-miterlimit="10"/>
  <g>
    <g>
      <g>
        <line x1="8.7" y1="6" x2="8.7" y2="144.2" fill="none" stroke="#231f20" stroke-miterlimit="10" stroke-width=".75"/>
        <line x1="12.8" y1="6" x2="12.8" y2="144.2" fill="none" stroke="#231f20" stroke-miterlimit="10" stroke-width=".75"/>
        <line x1="16.9" y1="6" x2="16.9" y2="144.2" fill="none" stroke="#231f20" stroke-miterlimit="10" stroke-width=".75"/>
        <line x1="21" y1="6" x2="21" y2="144.2" fill="none" stroke="#231f20" stroke-miterlimit="10" stroke-width=".75"/>
        <line x1="25" y1="6" x2="25" y2="144.2" fill="none" stroke="#231f20" stroke-miterlimit="10" stroke-width=".75"/>
        <line x1="29.1" y1="6" x2="29.1" y2="144.2" fill="none" stroke="#231f20" stroke-miterlimit="10" stroke-width=".75"/>
        <line x1="33.2" y1="6" x2="33.2" y2="144.2" fill="none" stroke="#231f20" stroke-miterlimit="10" stroke-width=".75"/>
        <line x1="37.3" y1="6" x2="37.3" y2="144.2" fill="none" stroke="#231f20" stroke-miterlimit="10" stroke-width=".75"/>
      </g>
      <g>
        <line x1="41.1" y1="6" x2="41.1" y2="144.2" fill="none" stroke="#231f20" stroke-miterlimit="10" stroke-width=".75"/>
        <line x1="45.2" y1="6" x2="45.2" y2="144.2" fill="none" stroke="#231f20" stroke-miterlimit="10" stroke-width=".75"/>
        <line x1="49.3" y1="6" x2="49.3" y2="144.2" fill="none" stroke="#231f20" stroke-miterlimit="10" stroke-width=".75"/>
        <line x1="53.4" y1="6" x2="53.4" y2="144.2" fill="none" stroke="#231f20" stroke-miterlimit="10" stroke-width=".75"/>
        <line x1="57.4" y1="6" x2="57.4" y2="144.2" fill="none" stroke="#231f20" stroke-miterlimit="10" stroke-width=".75"/>
        <line x1="61.5" y1="6" x2="61.5" y2="144.2" fill="none" stroke="#231f20" stroke-miterlimit="10" stroke-width=".75"/>
        <line x1="65.6" y1="6" x2="65.6" y2="144.2" fill="none" stroke="#231f20" stroke-miterlimit="10" stroke-width=".75"/>
        <line x1="69.7" y1="6" x2="69.7" y2="144.2" fill="none" stroke="#231f20" stroke-miterlimit="10" stroke-width=".75"/>
      </g>
      <g>
        <line x1="73.8" y1="6" x2="73.8" y2="144.2" fill="none" stroke="#231f20" stroke-miterlimit="10" stroke-width=".75"/>
        <line x1="77.8" y1="6" x2="77.8" y2="144.2" fill="none" stroke="#231f20" stroke-miterlimit="10" stroke-width=".75"/>
        <line x1="81.9" y1="6" x2="81.9" y2="144.2" fill="none" stroke="#231f20" stroke-miterlimit="10" stroke-width=".75"/>
        <line x1="86" y1="6" x2="86" y2="144.2" fill="none" stroke="#231f20" stroke-miterlimit="10" stroke-width=".75"/>
        <line x1="90.1" y1="6" x2="90.1" y2="144.2" fill="none" stroke="#231f20" stroke-miterlimit="10" stroke-width=".75"/>
      </g>
    </g>
    <line x1="94" y1="9.46" x2="5.7" y2="9.46" fill="none" stroke="#231f20" stroke-miterlimit="10" stroke-width=".75"/>
    <line x1="94" y1="13.63" x2="5.7" y2="13.63" fill="none" stroke="#231f20" stroke-miterlimit="10" stroke-width=".75"/>
    <line x1="94" y1="17.81" x2="5.7" y2="17.8" fill="none" stroke="#231f20" stroke-miterlimit="10" stroke-width=".75"/>
    <line x1="94" y1="21.88" x2="5.7" y2="21.88" fill="none" stroke="#231f20" stroke-miterlimit="10" stroke-width=".75"/>
    <line x1="94" y1="26.05" x2="5.7" y2="26.05" fill="none" stroke="#231f20" stroke-miterlimit="10" stroke-width=".75"/>
    <line x1="94" y1="30.22" x2="5.7" y2="30.22" fill="none" stroke="#231f20" stroke-miterlimit="10" stroke-width=".75"/>
    <line x1="94" y1="34.39" x2="5.7" y2="34.39" fill="none" stroke="#231f20" stroke-miterlimit="10" stroke-width=".75"/>
    <g>
      <line x1="94" y1="38.26" x2="5.7" y2="38.26" fill="none" stroke="#231f20" stroke-miterlimit="10" stroke-width=".75"/>
      <line x1="94" y1="42.43" x2="5.7" y2="42.43" fill="none" stroke="#231f20" stroke-miterlimit="10" stroke-width=".75"/>
      <line x1="94" y1="46.61" x2="5.7" y2="46.61" fill="none" stroke="#231f20" stroke-miterlimit="10" stroke-width=".75"/>
      <line x1="94" y1="50.78" x2="5.7" y2="50.78" fill="none" stroke="#231f20" stroke-miterlimit="10" stroke-width=".75"/>
      <line x1="94" y1="54.85" x2="5.7" y2="54.85" fill="none" stroke="#231f20" stroke-miterlimit="10" stroke-width=".75"/>
      <line x1="94" y1="59.02" x2="5.7" y2="59.02" fill="none" stroke="#231f20" stroke-miterlimit="10" stroke-width=".75"/>
      <line x1="94" y1="63.19" x2="5.7" y2="63.19" fill="none" stroke="#231f20" stroke-miterlimit="10" stroke-width=".75"/>
      <line x1="94" y1="67.37" x2="5.7" y2="67.37" fill="none" stroke="#231f20" stroke-miterlimit="10" stroke-width=".75"/>
    </g>
    <g>
      <line x1="94" y1="71.54" x2="5.7" y2="71.54" fill="none" stroke="#231f20" stroke-miterlimit="10" stroke-width=".75"/>
      <line x1="94" y1="75.61" x2="5.7" y2="75.61" fill="none" stroke="#231f20" stroke-miterlimit="10" stroke-width=".75"/>
      <line x1="94" y1="79.78" x2="5.7" y2="79.78" fill="none" stroke="#231f20" stroke-miterlimit="10" stroke-width=".75"/>
      <line x1="94" y1="83.95" x2="5.7" y2="83.95" fill="none" stroke="#231f20" stroke-miterlimit="10" stroke-width=".75"/>
      <line x1="94" y1="88.13" x2="5.7" y2="88.13" fill="none" stroke="#231f20" stroke-miterlimit="10" stroke-width=".75"/>
    </g>
    <g>
      <line x1="94" y1="92.3" x2="5.7" y2="92.3" fill="none" stroke="#231f20" stroke-miterlimit="10" stroke-width=".75"/>
      <line x1="94" y1="96.47" x2="5.7" y2="96.47" fill="none" stroke="#231f20" stroke-miterlimit="10" stroke-width=".75"/>
      <line x1="94" y1="100.64" x2="5.7" y2="100.64" fill="none" stroke="#231f20" stroke-miterlimit="10" stroke-width=".75"/>
      <line x1="94" y1="104.82" x2="5.7" y2="104.82" fill="none" stroke="#231f20" stroke-miterlimit="10" stroke-width=".75"/>
      <line x1="94" y1="108.89" x2="5.7" y2="108.89" fill="none" stroke="#231f20" stroke-miterlimit="10" stroke-width=".75"/>
      <line x1="94" y1="113.06" x2="5.7" y2="113.06" fill="none" stroke="#231f20" stroke-miterlimit="10" stroke-width=".75"/>
      <line x1="94" y1="117.23" x2="5.7" y2="117.23" fill="none" stroke="#231f20" stroke-miterlimit="10" stroke-width=".75"/>
      <line x1="94" y1="121.4" x2="5.7" y2="121.4" fill="none" stroke="#231f20" stroke-miterlimit="10" stroke-width=".75"/>
    </g>
    <line x1="94" y1="125.27" x2="5.7" y2="125.27" fill="none" stroke="#231f20" stroke-miterlimit="10" stroke-width=".75"/>
    <line x1="94" y1="129.44" x2="5.7" y2="129.44" fill="none" stroke="#231f20" stroke-miterlimit="10" stroke-width=".75"/>
    <line x1="94" y1="133.62" x2="5.7" y2="133.62" fill="none" stroke="#231f20" stroke-miterlimit="10" stroke-width=".75"/>
    <line x1="94" y1="137.79" x2="5.7" y2="137.79" fill="none" stroke="#231f20" stroke-miterlimit="10" stroke-width=".75"/>
    <line x1="94" y1="141.86" x2="5.7" y2="141.86" fill="none" stroke="#231f20" stroke-miterlimit="10" stroke-width=".75"/>
  </g>
</svg>