<?xml version="1.0" encoding="UTF-8"?>
<svg id="Layer_1" data-name="Layer 1" xmlns="http://www.w3.org/2000/svg" viewBox="0 0 100 150">
  <rect width="100" height="150" fill="#fff"/>
  <rect x="2.94" y="3.32" width="94.13" height="143.35" fill="none" stroke="#231f20" stroke-miterlimit="10"/>
  <line x1="94" y1="9.85" x2="5.7" y2="9.85" fill="none" stroke="#231f20" stroke-miterlimit="10" stroke-width=".75"/>
  <line x1="94" y1="14.01" x2="5.7" y2="14.01" fill="none" stroke="#231f20" stroke-miterlimit="10" stroke-width=".75"/>
  <line x1="94" y1="18.17" x2="5.7" y2="18.17" fill="none" stroke="#231f20" stroke-miterlimit="10" stroke-width=".75"/>
  <line x1="94" y1="22.23" x2="5.7" y2="22.23" fill="none" stroke="#231f20" stroke-miterlimit="10" stroke-width=".75"/>
  <line x1="94" y1="26.39" x2="5.7" y2="26.39" fill="none" stroke="#231f20" stroke-miterlimit="10" stroke-width=".75"/>
  <line x1="94" y1="30.55" x2="5.7" y2="30.55" fill="none" stroke="#231f20" stroke-miterlimit="10" stroke-width=".75"/>
  <line x1="94" y1="34.71" x2="5.7" y2="34.71" fill="none" stroke="#231f20" stroke-miterlimit="10" stroke-width=".75"/>
  <g>
    <line x1="94" y1="38.57" x2="5.7" y2="38.57" fill="none" stroke="#231f20" stroke-miterlimit="10" stroke-width=".75"/>
    <line x1="94" y1="42.73" x2="5.7" y2="42.73" fill="none" stroke="#231f20" stroke-miterlimit="10" stroke-width=".75"/>
    <line x1="94" y1="46.89" x2="5.7" y2="46.89" fill="none" stroke="#231f20" stroke-miterlimit="10" stroke-width=".75"/>
    <line x1="94" y1="51.05" x2="5.7" y2="51.05" fill="none" stroke="#231f20" stroke-miterlimit="10" stroke-width=".75"/>
    <line x1="94" y1="55.11" x2="5.7" y2="55.11" fill="none" stroke="#231f20" stroke-miterlimit="10" stroke-width=".75"/>
    <line x1="94" y1="59.27" x2="5.7" y2="59.27" fill="none" stroke="#231f20" stroke-miterlimit="10" stroke-width=".75"/>
    <line x1="94" y1="63.43" x2="5.7" y2="63.43" fill="none" stroke="#231f20" stroke-miterlimit="10" stroke-width=".75"/>
    <line x1="94" y1="67.59" x2="5.7" y2="67.59" fill="none" stroke="#231f20" stroke-miterlimit="10" stroke-width=".75"/>
  </g>
  <g>
    <line x1="94" y1="71.75" x2="5.7" y2="71.75" fill="none" stroke="#231f20" stroke-miterlimit="10" stroke-width=".75"/>
    <line x1="94" y1="75.81" x2="5.7" y2="75.81" fill="none" stroke="#231f20" stroke-miterlimit="10" stroke-width=".75"/>
    <line x1="94" y1="79.97" x2="5.7" y2="79.97" fill="none" stroke="#231f20" stroke-miterlimit="10" stroke-width=".75"/>
    <line x1="94" y1="84.13" x2="5.7" y2="84.13" fill="none" stroke="#231f20" stroke-miterlimit="10" stroke-width=".75"/>
    <line x1="94" y1="88.29" x2="5.7" y2="88.29" fill="none" stroke="#231f20" stroke-miterlimit="10" stroke-width=".75"/>
  </g>
  <g>
    <line x1="94" y1="92.45" x2="5.7" y2="92.45" fill="none" stroke="#231f20" stroke-miterlimit="10" stroke-width=".75"/>
    <line x1="94" y1="96.61" x2="5.7" y2="96.61" fill="none" stroke="#231f20" stroke-miterlimit="10" stroke-width=".75"/>
    <line x1="94" y1="100.77" x2="5.7" y2="100.77" fill="none" stroke="#231f20" stroke-miterlimit="10" stroke-width=".75"/>
    <line x1="94" y1="104.93" x2="5.7" y2="104.93" fill="none" stroke="#231f20" stroke-miterlimit="10" stroke-width=".75"/>
    <line x1="94" y1="108.99" x2="5.7" y2="108.99" fill="none" stroke="#231f20" stroke-miterlimit="10" stroke-width=".75"/>
    <line x1="94" y1="113.15" x2="5.7" y2="113.15" fill="none" stroke="#231f20" stroke-miterlimit="10" stroke-width=".75"/>
    <line x1="94" y1="117.31" x2="5.7" y2="117.31" fill="none" stroke="#231f20" stroke-miterlimit="10" stroke-width=".75"/>
    <line x1="94" y1="121.47" x2="5.7" y2="121.47" fill="none" stroke="#231f20" stroke-miterlimit="10" stroke-width=".75"/>
  </g>
  <line x1="94" y1="125.33" x2="5.7" y2="125.33" fill="none" stroke="#231f20" stroke-miterlimit="10" stroke-width=".75"/>
  <line x1="94" y1="129.49" x2="5.7" y2="129.49" fill="none" stroke="#231f20" stroke-miterlimit="10" stroke-width=".75"/>
  <line x1="94" y1="133.65" x2="5.7" y2="133.65" fill="none" stroke="#231f20" stroke-miterlimit="10" stroke-width=".75"/>
  <line x1="94" y1="137.81" x2="5.7" y2="137.81" fill="none" stroke="#231f20" stroke-miterlimit="10" stroke-width=".75"/>
  <line x1="94" y1="141.87" x2="5.7" y2="141.87" fill="none" stroke="#231f20" stroke-miterlimit="10" stroke-width=".75"/>
</svg>